<svg xmlns="http://www.w3.org/2000/svg" xmlns:xlink="http://www.w3.org/1999/xlink" version="1.1" class="icn-arrow-down-small" x="0px" y="0px" viewBox="0 0 595.279 409.445"><path d="M568.231 125.033c-9.158-4.578-18.316-4.578-32.053 0L298.067 340.25L59.954 125 c-9.158-4.578-22.895-4.578-32.053 0c-9.158 4.58-9.158 18.3 0 27.476l251.85 228.953c0 4.6 4.6 4.6 4.6 4.6 c4.579 4.6 9.2 4.6 13.7 4.579c4.578 0 13.736-4.579 13.736-4.579c4.58-4.579 4.58-4.579 4.58-4.579l242.69-228.953 C577.389 143.4 577.4 129.6 568.2 125.033z"/></svg>