<svg xmlns="http://www.w3.org/2000/svg" xmlns:xlink="http://www.w3.org/1999/xlink" version="1.1" class="icn-arrow-left-small" x="0px" y="0px" viewBox="94.414 259.502 269.019 553.247"><path d="M359.998 806.7c4.579-9.158 4.579-18.316 0-32.054L144.782 536.535l215.216-238.112 c4.579-9.158 4.579-22.895 0-32.053c-4.578-9.158-18.315-9.158-27.475 0L103.572 518.22c-4.578 0-4.578 4.578-4.578 4 c-4.579 4.578-4.579 9.157-4.579 13.737c0 4 4 13 4 13.736c4.579 4 4 4 4 4.58l228.953 242 C341.683 815 355 815 360 806.7H359.998z"/></svg>
