<svg version="1.1" id="lo-poly" xmlns="http://www.w3.org/2000/svg" xmlns:xlink="http://www.w3.org/1999/xlink" x="0px" y="0px" viewBox="0 0 2752.081 2685.566" xml:space="preserve">
	<g id="light">
		<polygon fill="#292929" points="2752.081,814.152 2166.425,241.191 2236.098,608.737"/>
		<polygon fill="#292929" points="1855.041,390.811 1665.568,481.086 1732.411,762.667 2236.102,608.737"/>
		<polygon fill="#292929" points="1375.618,0 569.311,150.111 1112.27,266.854"/>
		<polygon fill="#292929" points="1112.274,266.845 1444.906,675.204 1656.288,478.255 1550.15,298.057"/>
	</g>
	<g id="mid">
		<polygon fill="#252525" points="2014.561,1967.404 2449.929,1807.423 1940.833,1652.534"/>
		<polygon fill="#252525" points="1732.409,762.655 1788.089,1000.423 2236.112,608.735"/>
		<polygon fill="#252525" points="2603.562,1302.416 2680.058,1050.953 2236.107,608.736"/>
		<polygon fill="#252525" points="1266.255,841.669 1444.914,675.193 1112.27,266.854"/>
		<polygon fill="#252525" points="539.637,1518.707 776.247,1298.249 267.143,1143.362"/>
		<polygon fill="#252525" points="497.273,386.919 420.776,638.368 1112.279,266.833"/>
	</g>
	<g id="dark">
		<polygon fill="#212121" points="2296.706,2311.03 2449.929,1807.423 2014.561,1967.404"/>
		<polygon fill="#212121" points="1788.089,1000.423 2450.559,1805.322 2603.562,1302.416 2236.112,608.747"/>
		<polygon fill="#212121" points="2166.425,241.18 1855.037,390.812 2236.112,608.747"/>
		<polygon fill="#212121" points="420.776,638.368 267.785,1141.289 1266.246,841.683 1112.274,266.845"/>
		<polygon fill="#212121" points="1550.15,298.057 1374.831,0.364 1112.279,266.833"/>
		<polygon fill="#212121" points="113.942,1646.989 539.649,1518.706 267.146,1143.363"/>
	</g>
	<g id="darkest">
		<polygon fill="#1C1D1D" points="1788.089,1000.423 1940.833,1652.534 2449.929,1807.423 2450.559,1805.322"/>
		<polygon fill="#1C1D1D" points="2182.782,2685.566 2296.728,2311.017 2014.561,1967.404"/>
		<polygon fill="#1C1D1D" points="2236.098,608.737 2680.043,1050.941 2752.081,814.153"/>
		<polygon fill="#1C1D1D" points="267.785,1141.289 267.146,1143.363 776.23,1298.249 1266.249,841.67"/>
		<polygon fill="#1C1D1D" points="0,2021.514 539.649,1518.706 113.943,1646.981"/>
		<polygon fill="#1C1D1D" points="569.311,150.112 497.267,386.907 1112.281,266.854"/>
	</g>
</svg>
