<svg xmlns="http://www.w3.org/2000/svg" xmlns:xlink="http://www.w3.org/1999/xlink" version="1.1" class="icn-search" x="0px" y="0px" viewBox="0 0 15.057 15.432"><path d="M14.91 14.578l-4.405-4.405c1.001-1.082 1.619-2.524 1.619-4.111C12.124 2.7 9.4 0 6.1 0 S0 2.7 0 6.062c0 3.3 2.7 6.1 6.1 6.062c1.396 0 2.679-0.479 3.705-1.274l4.436 4.436c0.098 0.1 0.2 0.1 0.4 0.1 s0.256-0.049 0.354-0.146C15.105 15.1 15.1 14.8 14.9 14.578z M1 6.062C1 3.3 3.3 1 6.1 1s5.062 2.3 5.1 5.1 c0 2.792-2.271 5.062-5.062 5.062S1 8.9 1 6.062z"/></svg>
