<?xml version="1.0" encoding="utf-8"?>
<!-- Generator: Adobe Illustrator 16.0.0, SVG Export Plug-In . SVG Version: 6.00 Build 0)  -->
<!DOCTYPE svg PUBLIC "-//W3C//DTD SVG 1.1//EN" "http://www.w3.org/Graphics/SVG/1.1/DTD/svg11.dtd">
<svg version="1.1" id="Layer_1" xmlns="http://www.w3.org/2000/svg" xmlns:xlink="http://www.w3.org/1999/xlink" x="0px" y="0px"
	 width="9.346px" height="16.001px" viewBox="0 0 9.346 16.001" enable-background="new 0 0 9.346 16.001" xml:space="preserve">
<path fill="#FFFFFF" d="M7.743,8l-7.557,6.918c-0.249,0.249-0.249,0.651,0,0.897c0.251,0.248,0.652,0.248,0.903,0l7.863-7.2
	c0.076-0.03,0.15-0.078,0.212-0.14c0.132-0.132,0.188-0.309,0.18-0.48c0.006-0.171-0.052-0.341-0.182-0.471
	c-0.06-0.06-0.132-0.105-0.205-0.136L1.09,0.187c-0.249-0.249-0.652-0.249-0.903,0c-0.247,0.245-0.247,0.649,0,0.897L7.743,8z"/>
</svg>
