<?xml version="1.0" encoding="utf-8"?>
<!-- Generator: Adobe Illustrator 16.0.0, SVG Export Plug-In . SVG Version: 6.00 Build 0)  -->
<!DOCTYPE svg PUBLIC "-//W3C//DTD SVG 1.1//EN" "http://www.w3.org/Graphics/SVG/1.1/DTD/svg11.dtd">
<svg version="1.1" id="Layer_1" xmlns="http://www.w3.org/2000/svg" xmlns:xlink="http://www.w3.org/1999/xlink" x="0px" y="0px"
	 width="16.168px" height="16.168px" viewBox="0 0 16.168 16.168" enable-background="new 0 0 16.168 16.168" xml:space="preserve">
<g>
	<path fill="#FFFFFF" d="M0,8.084c0,4.458,3.626,8.084,8.084,8.084s8.084-3.626,8.084-8.084S12.542,0,8.084,0S0,3.626,0,8.084z
		 M15.168,8.084c0,3.906-3.178,7.084-7.084,7.084S1,11.99,1,8.084S4.178,1,8.084,1S15.168,4.178,15.168,8.084z"/>
	<path fill="#FFFFFF" d="M7.584,1.335L7.58,7.237C7.287,7.413,7.081,7.719,7.081,8.084c0,0.553,0.45,1.003,1.003,1.003
		s1.003-0.45,1.003-1.003c0-0.019-0.01-0.035-0.011-0.054l3.371-2.215l-0.549-0.836L8.58,7.16l0.004-5.825H7.584z"/>
</g>
</svg>
