<svg xmlns="http://www.w3.org/2000/svg" xmlns:xlink="http://www.w3.org/1999/xlink" version="1.1" class="icn-arrow-down-white" x="0px" y="0px" viewBox="-3.327 3.329 16.002 9.346"><path fill="#FFFFFF" d="M4.674 11.072l-6.918-7.557c-0.249-0.249-0.651-0.249-0.897 0c-0.248 0.251-0.248 0.7 0 0.903l7.2 7.9 c0.03 0.1 0.1 0.1 0.1 0.212c0.132 0.1 0.3 0.2 0.5 0.181c0.171 0 0.341-0.053 0.471-0.183 c0.061-0.06 0.105-0.132 0.136-0.205l7.202-7.867c0.249-0.249 0.249-0.652 0-0.903c-0.245-0.247-0.648-0.247-0.896 0L4.674 11.072z"/></svg>