<svg xmlns="http://www.w3.org/2000/svg" xmlns:xlink="http://www.w3.org/1999/xlink" version="1.1" class="icn-google" x="0px" y="0px" viewBox="0 0 566.929 567.335"><path d="M296.68 314.417c-11.635-8.726-36.927-26.594-36.927-38.589c0-14.069 4.004-20.983 25.195-37.567 c21.684-16.922 37.039-39.247 37.039-66.994c0-30.24-12.33-57.588-35.584-70.885h32.943l28.008-29.465c0 0-92.607 0-125.414 0 c-63.631 0-116.688 46.955-116.688 98.594c0 52.7 34.9 94.8 94.7 94.797c4.155 0 8.199-0.284 12.166-0.529 c-3.912 7.423-6.648 15.734-6.648 24.46c0 14.7 8 23 18 32.675c-7.535 0-14.807 0.208-22.758 0.2 c-72.869 0-123.883 50.185-123.883 98.272c0 47.4 61.5 77 134.4 77.024c83.049 0 134.144-47.106 134.144-94.533 C345.393 363.9 337.2 344.8 296.7 314.417z M152.452 168.68c-5.873-44.367 16.828-78.347 50.622-77.347 c33.771 1 62.7 37.5 68.5 81.804c5.817 44.424-13.601 72.981-47.39 72C190.4 244.1 158.3 213.1 152.5 168.68z M210.968 475.489c-50.354 0-86.753-31.881-86.753-70.186c0-37.529 42.668-69.902 93.059-69.318 c11.73 0.1 22.7 2 32.6 5.195c27.37 19 49.4 30.9 54.9 52.564c1.039 4.4 1.6 8.9 1.6 13.5 C306.464 445.6 281.8 475.5 211 475.489z"/><polygon points="502.1,269.9 444.2,269.9 444.2,327.7 415.3,327.7 415.3,269.9 357.4,269.9 357.4,241 415.3,241 415.3,183.1 444.2,183.1 444.2,241 502.1,241"/></svg>
